<svg width="390" height="390" viewBox="0 0 390 390" fill="none" xmlns="http://www.w3.org/2000/svg">
<path fill-rule="evenodd" clip-rule="evenodd" d="M102.659 67.9415C102.666 67.3816 103.075 66.908 103.628 66.8193C106.445 65.9703 109.095 64.6823 111.881 63.7427C113.382 63.2473 114.841 62.6306 116.241 61.8986C117.258 61.3581 118.416 61.199 119.477 60.7369L119.764 60.6029C120.988 59.9909 122.363 59.733 123.639 59.2026C124.716 58.7551 125.928 58.7067 127.046 58.283C128.681 57.6862 130.344 57.172 132.03 56.7425C133.077 56.3362 134.189 56.1245 135.312 56.1179C135.614 56.1473 135.794 55.9679 136.031 55.9048C137.04 55.6012 138.068 55.3594 139.107 55.1809C141.316 54.8647 143.494 54.3366 145.705 54.0546C147.31 53.851 148.894 53.5522 150.488 53.3009C152.023 53.06 153.562 52.8495 155.106 52.6693C158.719 52.234 162.355 52.0105 165.994 52C168.842 52.027 171.687 52.215 174.515 52.5629C176.818 52.7517 179.106 53.0938 181.363 53.5868C183.152 54.0392 185.017 54.2346 186.733 54.8391C188.351 55.4097 190.012 55.8955 191.632 56.4215C195.387 57.6393 199.081 59.003 202.715 60.5127C204.856 61.3991 206.991 62.3371 209.138 63.1866C211.658 64.1832 214.044 65.4582 216.559 66.4619C218.031 67.0511 219.477 67.8553 220.932 68.548C222.342 69.2183 223.649 70.0817 225.1 70.6635C226.526 71.2941 227.92 71.9968 229.275 72.7687C230.559 73.4443 232.087 73.8683 233.093 75.059C234.37 74.9746 235.118 76.0475 236.127 76.5349C237.135 77.0223 238.122 77.583 239.138 77.9999C240.186 78.4291 241.242 78.8958 242.266 79.3499C244.346 80.2717 246.502 80.9893 248.571 81.9014C249.835 82.457 251.173 82.5928 252.449 83.0252C254.898 83.8399 257.421 84.409 259.982 84.724C261.014 84.8305 262.022 85.0929 262.975 85.5023C263.689 85.831 264.356 85.3901 265.073 85.5852C266.232 85.9013 267.444 86.0216 268.627 86.2472C268.991 86.3841 269.401 86.3139 269.699 86.0635L270.378 86.8384C270.803 86.9171 270.485 86.5264 270.708 86.4096C271.203 86.4566 271.749 86.3803 272.229 86.755C272.68 87.1081 273.166 86.6496 273.688 86.8137C274.827 87.1662 276.166 86.5031 277.208 87.4678C278.342 87.146 279.473 87.5024 280.606 87.5084C281.154 87.4813 281.693 87.6494 282.128 87.9804L282.226 88.0597C282.625 88.4258 283.233 87.5692 283.594 88.2722C285.556 87.8887 287.293 88.8934 289.066 89.3541C291.911 90.0942 294.828 90.6216 297.566 91.8501C298.936 92.4642 300.539 92.7053 301.946 93.3048C305.111 94.6518 308.372 95.785 311.375 97.5121C312.616 98.2261 314.015 98.6639 315.249 99.3901L316.676 100.23C318.814 101.493 320.939 102.779 322.979 104.199C323.499 104.453 323.937 104.847 324.244 105.338C324.536 105.959 325.311 105.705 325.822 106.087C326.429 106.539 326.758 107.24 327.498 107.614C327.905 107.82 328.352 108.382 328.824 108.623C330.357 109.405 331.255 110.97 332.806 111.716C333.332 112.086 333.768 112.569 334.084 113.129C335.315 114.668 337.156 115.59 338.247 117.227L338.391 117.454C338.927 118.322 339.657 119.052 340.522 119.589L340.86 119.791C341.109 119.943 341.34 120.102 341.389 120.336C341.595 121.311 342.435 121.808 342.982 122.503C343.569 123.247 344.407 123.779 344.926 124.624C345.361 125.533 345.954 126.357 346.677 127.058C348.042 128.095 348.797 129.546 349.74 130.868C350.211 131.528 351.008 132.05 350.863 133.09C350.79 133.62 351.921 133.233 351.824 133.997L351.808 134.083C351.693 134.604 352.021 134.873 352.486 135.115C352.911 135.337 352.608 136.153 353.116 136.298C353.624 136.444 354.208 136.829 354.092 137.089C353.804 137.74 354.813 137.722 354.536 138.237C354.522 138.299 354.536 138.364 354.576 138.414C355.772 139.751 356.093 141.581 357.228 142.985C357.876 143.856 358.352 144.842 358.633 145.89C358.959 146.842 359.363 147.766 359.841 148.651C360.601 150.189 360.862 151.888 361.63 153.405C361.838 153.816 360.988 154.544 362.021 154.714C361.758 155.348 362.389 155.652 362.527 156.126C362.57 156.551 362.548 156.981 362.461 157.4C363.002 158.209 363.346 159.134 363.463 160.101C363.932 162.028 364.279 163.983 364.502 165.954L364.681 167.578C364.917 169.746 365.095 171.924 364.647 174.097C364.531 174.656 365.088 174.855 365.037 175.354C364.756 178.26 364.773 181.185 363.963 184.05C363.625 185.25 363.711 186.617 363.373 187.85C362.732 190.187 362.394 192.588 361.474 194.877L361.306 195.28C360.684 196.705 360.266 198.283 359.665 199.757C359.286 200.773 334.359 320.228 249.7 289.765C209.552 275.318 173.193 352.014 117.968 335.713C-38.3772 289.565 35.9736 97.789 98.9514 69.1533C99.4342 69.0287 99.8988 68.8423 100.334 68.5988C100.981 68.061 101.826 67.8222 102.659 67.9415Z" fill="#EEEAFB"/>
<path fill-rule="evenodd" clip-rule="evenodd" d="M156.781 287.465C154.591 267.211 156.152 241.73 163.991 222.926C162.554 225.617 183.217 230.019 182.998 231.172C181.561 238.737 180.641 247.264 179.404 256.67C178 267.355 178.956 278.795 180.142 287.315C182.946 307.474 158.968 307.7 156.781 287.465Z" fill="white"/>
<path fill-rule="evenodd" clip-rule="evenodd" d="M159.172 223.793C164.063 208.976 175.701 196.534 190.159 190.665C197.508 187.682 206.049 186.316 201.719 187.291C200.857 192.607 206.303 197.301 211.682 197.555C217.062 197.808 222.064 194.925 226.447 191.795C223.57 186.659 226.468 189.188 230.651 195C230.795 195.321 210.099 200.018 197.171 209.431C185.871 217.66 181.783 230.748 185.95 231.173C183.944 232.083 181.625 232.286 179.492 231.737C179.492 231.737 164.916 227.563 159.172 223.793Z" fill="white"/>
<path fill-rule="evenodd" clip-rule="evenodd" d="M159.172 223.792C164.063 208.975 175.701 196.533 190.159 190.664C192.826 189.582 199.69 187.159 203.457 185.132C210.08 181.571 208.52 178.466 208.52 176.212C208.52 173.7 219.731 170.618 222.062 172.37C223.693 173.595 222.841 178.151 223.787 181.958C225.273 187.931 228.217 193.586 229.398 192.743C232.941 197.732 248.228 201.603 260.92 215.46C266.38 221.423 267.871 228.314 269.821 233.573C271.525 238.169 274.781 241.318 275.651 242.528C275.716 242.674 255.123 252.436 255.123 252.436C255.123 252.436 260.38 282.188 253.339 287.315C242.038 295.544 179.937 318.706 184.105 319.131C182.937 319.661 177.919 277.83 178.768 257.999C179.377 243.767 183.889 231.401 182.998 231.172C182.998 231.172 164.916 227.563 159.172 223.792Z" fill="white"/>
<path fill-rule="evenodd" clip-rule="evenodd" d="M260.368 277.717C270.649 274.015 271.674 246.872 271.927 246.639C273.492 253.735 274.628 260.925 275.326 268.158C275.634 271.338 275.855 274.561 275.357 277.717C274.835 281.033 273.529 284.184 271.908 287.123C268.314 293.639 263.1 299.254 256.868 303.32C255.86 303.978 254.794 304.608 253.609 304.818C250.986 305.283 248.481 303.623 246.487 301.857C236.414 292.935 231.363 279.757 227.17 266.97C225.774 262.713 217.195 239.573 218.693 238.87C216.231 238.046 213.461 238.184 211.093 239.247C209.661 239.89 208.509 237.486 209.411 236.202C210.312 234.917 212.028 234.588 213.519 234.097C215.01 233.607 216.634 232.503 216.525 230.938C213.919 231.336 211.348 231.966 208.853 232.818C207.67 233.222 206.457 232.074 206.158 230.859C205.355 227.604 208.64 224.82 211.733 223.527C214.952 222.181 218.419 221.434 221.906 221.334C222.615 221.314 233.664 222.845 231.427 231.647C231.4 231.752 231.098 232.706 231.074 232.818C228.734 243.806 248.268 282.074 260.368 277.717Z" fill="white"/>
<path fill-rule="evenodd" clip-rule="evenodd" d="M213.859 221.946C212.735 221.358 213.309 219.664 213.954 218.571C216.038 215.038 217.366 211.061 217.822 206.984C220.939 206.569 224.208 207.444 226.701 209.36C227.107 209.672 227.509 210.034 227.67 210.52C227.878 211.146 227.64 211.823 227.404 212.439C226.241 215.478 225.077 218.517 223.914 221.556C225.905 221.557 216.218 223.295 213.859 221.946Z" fill="white"/>
<path fill-rule="evenodd" clip-rule="evenodd" d="M181.816 146.777C178.037 112.809 173.998 114.706 169.539 107.618C162.95 97.1416 164.675 83.3831 169.144 71.8416C171.943 64.6114 175.762 57.7007 181.017 52C181.967 52.2959 182.293 53.551 181.994 54.5006C181.695 55.4502 180.976 56.1955 180.397 57.0054C178.672 59.4185 178.17 62.661 179.083 65.4829C180.387 69.5102 184.29 72.2585 188.382 73.34C192.475 74.4215 196.79 74.1132 201.011 73.7971C205.158 73.4865 209.305 73.1759 213.452 72.8653C217.597 72.5548 221.943 72.2774 225.734 73.9831C229.524 75.6889 232.45 80.0859 231.045 83.9973C230.612 85.2024 231.302 86.5626 232.286 87.3813C233.271 88.1999 234.509 88.6334 235.65 89.2153C240.457 91.6673 243.448 96.7926 244.624 102.059C245.799 107.326 245.408 112.8 245.011 118.182C244.734 121.935 244.457 125.688 244.181 129.441C243.989 132.036 243.858 134.864 245.352 136.994C247.15 139.56 245.176 143.099 242.845 145.193C240.515 147.288 237.575 149.243 237.042 152.33C236.342 156.386 223.787 174.741 211.661 176.213C199.92 177.637 183.511 162.017 181.816 146.777Z" fill="white"/>
<path fill-rule="evenodd" clip-rule="evenodd" d="M186.771 151.367C190.181 151.595 193.607 151.586 197.016 151.34C198.296 151.248 199.809 150.961 200.32 149.784C200.935 148.367 202.418 147.372 203.962 147.339C205.506 147.307 207.03 148.239 207.703 149.629C208.427 151.122 210.554 151.044 212.176 150.693C216.482 149.761 220.719 148.509 224.841 146.953C226.709 146.248 227.794 144.201 227.955 142.211C228.116 140.222 227.527 138.257 226.946 136.348C221.756 137.539 216.406 137.805 211.088 138.066C200.369 138.593 189.651 139.119 178.933 139.646C179.609 142.629 180.286 145.612 180.963 148.594C181.111 149.248 181.278 149.937 181.743 150.419C182.209 150.901 183.078 151.059 183.53 150.564C182.126 147.265 180.692 143.707 181.42 140.197C182.322 143.227 183.224 146.256 184.127 149.285C184.294 149.846 184.481 150.439 184.923 150.823C185.418 151.251 186.118 151.323 186.771 151.367ZM226.754 135.374C227.166 134.883 226.85 133.888 226.219 133.997C211.007 136.62 195.423 135.544 180.019 136.55C179.177 136.605 178.065 136.959 178.138 137.8C180.527 138.607 183.118 138.467 185.635 138.317C198.753 137.537 211.87 136.757 224.987 135.977C225.627 135.939 226.342 135.865 226.754 135.374Z" fill="#E7EAEE"/>
<path fill-rule="evenodd" clip-rule="evenodd" d="M217.171 236.971C217.171 240.124 223.349 257.463 222.062 253.171C222.208 254.849 223.26 257.871 221.812 258.732C220.889 259.28 219.724 259.106 218.669 258.904C210.254 257.286 201.979 254.943 193.966 251.907C192.557 251.373 191.015 250.684 190.448 249.288C189.557 247.097 191.582 244.892 193.407 243.388C197.411 240.088 201.414 236.788 205.417 233.488C205.713 233.244 206.051 232.986 206.433 233.014C206.816 233.041 207.14 233.546 206.87 233.818C202.574 237.337 217.171 233.817 217.171 236.971Z" fill="white"/>
<path fill-rule="evenodd" clip-rule="evenodd" d="M221.812 258.732C220.889 259.281 219.724 259.107 218.669 258.904C210.254 257.287 201.979 254.943 193.966 251.907C192.557 251.373 191.015 250.684 190.448 249.288C189.557 247.097 192.619 244.4 195 243.1C199.136 240.842 203.468 245.767 209.257 249.288C215.39 253.019 222.865 255.417 222.686 254.915" fill="#FFA503"/>
<path fill-rule="evenodd" clip-rule="evenodd" d="M241.37 163.688C241.038 163.738 241.146 164.246 241.34 164.52C243.365 167.37 245.39 170.221 247.415 173.072C247.759 173.556 248.091 174.266 247.667 174.682C241.778 172.07 237.009 167.035 234.72 161.014C235.133 160.547 235.834 161.179 236.129 161.729C238.14 165.489 240.877 168.858 244.146 171.595C244.481 171.876 244.984 172.153 245.314 171.866C242.167 168.221 239.638 164.044 237.867 159.567C237.793 159.379 237.718 159.175 237.768 158.979C237.865 158.597 238.396 158.48 238.748 158.659C239.099 158.839 239.311 159.202 239.516 159.54C241.29 162.475 243.917 164.887 246.992 166.406C247.292 165.823 246.768 165.173 246.301 164.713C242.76 161.22 240.168 156.774 238.872 151.972C238.612 151.006 238.727 149.562 239.726 149.521C239.977 151.799 240.616 154.034 241.609 156.101C242.845 158.674 244.605 160.953 246.351 163.211C247.761 165.033 249.17 166.855 250.58 168.677C250.309 169.032 249.757 168.927 249.337 168.775C246.352 167.689 243.611 165.939 241.37 163.688Z" fill="#00160A"/>
<path fill-rule="evenodd" clip-rule="evenodd" d="M208.26 157.04C212.424 157.04 215.8 159.485 215.8 162.5C215.8 165.516 213.248 168.275 209.084 168.275C204.92 168.275 200.72 165.516 200.72 162.5C200.72 159.485 204.096 157.04 208.26 157.04ZM208.26 158.6C204.869 158.6 201.779 160.475 201.779 162.5C201.779 164.525 204.938 167.137 208.329 167.137C211.72 167.137 214.24 164.525 214.24 162.5C214.24 160.475 211.651 158.6 208.26 158.6Z" fill="#00160A"/>
<path fill-rule="evenodd" clip-rule="evenodd" d="M132.777 222.967C132.675 223.177 132.62 223.409 132.617 223.642C132.172 223.417 131.727 223.192 131.281 222.967C132.889 226.938 134.496 230.908 136.104 234.879C136.351 235.488 136.607 236.113 137.06 236.591C137.021 235.392 136.666 234.229 136.314 233.083C135.293 229.761 134.272 226.438 133.251 223.116C133.172 222.947 132.938 222.873 132.777 222.967Z" fill="#FFA503"/>
<path fill-rule="evenodd" clip-rule="evenodd" d="M139.923 210.38C140.434 211.163 140.476 212.15 140.729 213.05C141.269 214.975 142.762 216.468 143.716 218.226C144.67 219.984 144.911 222.512 143.305 223.703C142.531 224.276 142.675 225.443 142.782 226.401C142.888 227.358 142.638 228.625 141.684 228.758C141.142 228.833 140.621 228.454 140.353 227.977C140.086 227.5 140.016 226.942 139.942 226.4C139.445 222.784 138.503 219.229 137.144 215.841C136.804 214.994 136.472 213.924 137.094 213.256C137.882 212.41 136.848 210.839 137.565 209.933C138.146 209.2 139.413 209.597 139.923 210.38Z" fill="#FFA503"/>
<path fill-rule="evenodd" clip-rule="evenodd" d="M202.393 208.068C202.754 207.236 203.115 206.404 203.476 205.573C203.917 204.555 204.729 203.339 205.804 203.612C206.126 203.694 206.401 203.909 206.616 204.163C207.713 205.462 207.21 207.505 206.185 208.862C205.482 209.792 204.567 210.56 203.53 211.092C202.897 211.415 202.109 210.816 201.965 210.12C201.821 209.424 202.11 208.72 202.393 208.068ZM205.19 208.089C205.516 207.685 205.851 207.266 205.995 206.766C206.14 206.267 206.048 205.662 205.637 205.343C204.288 206.599 203.306 208.246 202.842 210.03C203.174 210.335 203.68 209.959 203.963 209.609C204.372 209.102 204.781 208.596 205.19 208.089Z" fill="#FFA503"/>
<path fill-rule="evenodd" clip-rule="evenodd" d="M181.053 210.056C182.689 208.783 185.419 209.559 186.284 211.443C187.148 213.328 186.104 215.792 184.21 216.636C183.714 216.858 183.174 216.982 182.63 217.001C181.631 217.034 180.578 216.666 179.978 215.867C179.352 215.034 179.312 213.893 179.51 212.87C179.717 211.797 180.19 210.727 181.053 210.056Z" fill="#FFA503"/>
<path fill-rule="evenodd" clip-rule="evenodd" d="M219.418 131.396C218.087 132.685 215.924 132.288 214.135 131.804C213.285 131.574 212.435 131.345 211.585 131.115C210.738 130.886 209.696 130.707 209.099 131.35C208.544 131.948 207.437 131.126 207.599 130.326C207.761 129.526 208.642 129.075 209.453 128.99C212.315 128.691 214.901 131.413 217.74 130.948C218.382 130.843 219.313 130.754 219.418 131.396L219.418 131.396Z" fill="#00160A"/>
<path fill-rule="evenodd" clip-rule="evenodd" d="M178.327 205.765C179.012 205.197 179.997 204.933 180.821 205.27C181.646 205.607 182.178 206.633 181.821 207.449C181.575 208.009 181.01 208.351 180.46 208.617C179.706 208.981 178.768 209.258 178.07 208.795C177.089 208.144 177.419 206.517 178.327 205.765M178.957 207.253C178.658 207.402 178.73 207.946 179.058 208.012C179.785 207.8 180.477 207.47 181.1 207.04C180.513 206.487 179.437 206.608 178.986 207.277L178.957 207.253Z" fill="#FFA503"/>
<path fill-rule="evenodd" clip-rule="evenodd" d="M217.3 172.951C216.136 173.205 214.842 172.68 214.183 171.688C219.629 172.143 225.233 170.21 229.24 166.493C233.247 162.777 235.596 157.334 235.552 151.869C235.241 151.956 234.943 152.089 234.671 152.261C234.054 151.998 234.46 151.065 234.934 150.59L244.186 141.301C245.786 139.694 243.806 136.667 241.539 136.677C239.271 136.687 237.452 138.555 236.258 140.484C234.892 142.691 233.96 145.166 233.531 147.726L228.763 137.319C228.201 138.395 228.524 139.587 228.855 140.805C229.065 141.578 229.278 142.362 229.268 143.133C229.227 146.465 225.364 148.195 222.161 149.114L213.444 151.615C211.137 152.277 207.956 152.559 207.016 150.351C206.096 148.186 202.413 148.126 201.422 150.259C200.485 152.277 197.797 152.608 195.572 152.599C191.334 152.583 187.098 152.359 182.882 151.929C182.235 151.863 181.542 151.772 181.062 151.335C180.63 150.942 180.458 150.347 180.304 149.784L177.535 139.648C177.233 138.543 176.938 137.331 177.409 136.287C177.88 135.243 179.491 134.707 180.181 135.622C178.828 130.167 178.598 124.437 179.509 118.892L181.234 135.489L223.257 133.723C224.171 133.684 225.236 133.561 225.71 132.779C226.125 132.092 225.884 131.214 225.628 130.454C224.6 127.397 223.51 124.361 222.358 121.349C222.002 120.418 221.612 119.449 220.85 118.807C219.231 117.443 216.802 118.119 214.789 118.774C206.826 121.364 198.249 122.525 190.032 120.914C181.815 119.303 173.998 114.706 169.539 107.618C162.95 97.1416 164.675 83.3831 169.144 71.8416C171.943 64.6114 175.762 57.7007 181.017 52C181.967 52.2959 182.293 53.551 181.994 54.5006C181.77 55.2147 181.307 55.8133 180.845 56.4108C180.693 56.6077 180.54 56.8045 180.397 57.0054C178.672 59.4185 178.17 62.661 179.083 65.4829C180.387 69.5102 184.29 72.2585 188.382 73.34C192.475 74.4215 196.79 74.1132 201.011 73.7971L213.452 72.8653C217.597 72.5548 221.943 72.2774 225.734 73.9831C229.524 75.6888 232.45 80.0859 231.045 83.9973C230.612 85.2023 231.302 86.5626 232.286 87.3812C232.997 87.9723 233.84 88.3626 234.683 88.7529L234.684 88.753C235.008 88.9033 235.333 89.0535 235.65 89.2153C240.457 91.6673 243.448 96.7926 244.624 102.059C245.799 107.326 245.408 112.8 245.011 118.182L244.181 129.441C243.989 132.036 243.858 134.864 245.352 136.994C247.15 139.56 245.176 143.099 242.845 145.193C242.446 145.552 242.028 145.907 241.608 146.265C239.578 147.991 237.484 149.772 237.042 152.33C235.772 159.686 232.617 167.588 225.809 170.65C224.88 171.068 223.909 171.381 222.939 171.694C222 171.997 221.062 172.299 220.161 172.697C219.308 173.073 218.492 173.532 217.678 173.991C216.498 174.655 215.32 175.319 214.033 175.727C210.047 176.991 205.697 175.606 201.994 173.661C193.473 169.186 186.622 161.616 183.018 152.692C184.41 152.686 185.24 154.188 185.836 155.445C189.428 163.021 195.659 169.315 203.198 172.983C207.685 175.166 213.551 176.245 217.3 172.951ZM231.533 89.6667C231.118 89.4931 230.667 89.331 230.228 89.4273C229.659 89.5523 229.313 90.0419 228.963 90.5368L228.962 90.5369C228.8 90.7665 228.637 90.9973 228.45 91.1932C227.861 91.8113 226.405 91.661 226.603 90.8306C227.712 88.6234 228.837 86.3652 229.17 83.918C229.504 81.4707 228.908 78.7562 227.045 77.1345C225.757 76.0133 224.035 75.5394 222.353 75.2424C216.961 74.29 211.463 74.8245 205.99 75.3564C204.828 75.4694 203.667 75.5822 202.508 75.6807C195.894 76.2429 188.938 76.2699 182.989 73.3241C178.946 71.3219 176.539 66.465 177.394 62.0352C170.281 70.6951 167.082 82.2712 167.912 93.4469C168.15 96.6604 168.711 99.8729 169.889 102.872C172.801 110.29 179.437 115.923 186.969 118.525C194.5 121.127 202.823 120.89 210.521 118.834C218.22 116.777 225.355 112.98 232.002 108.585C232.435 108.298 232.996 108.924 232.862 109.425C232.727 109.927 232.23 110.228 231.776 110.478L220.245 116.814C222.55 118.024 223.795 120.557 224.774 122.969C226.021 126.041 227.083 129.188 227.953 132.388L240.312 122.462C240.741 122.117 241.612 121.947 241.63 122.497L229.841 132.3C229.246 132.795 228.589 133.453 228.743 134.211L239.955 124.978C241.152 123.991 242.432 122.868 242.676 121.336C243.771 114.47 244.83 107.22 242.316 100.738C240.401 95.8034 236.415 91.7107 231.533 89.6667ZM184.923 150.822C185.418 151.251 186.118 151.323 186.771 151.366C190.181 151.595 193.607 151.586 197.016 151.34C198.296 151.248 199.809 150.961 200.32 149.784C200.935 148.367 202.418 147.371 203.962 147.339C205.506 147.306 207.03 148.239 207.703 149.629C208.427 151.122 210.554 151.044 212.176 150.693C216.482 149.76 220.72 148.509 224.841 146.952C226.709 146.247 227.794 144.2 227.955 142.211C228.116 140.222 227.527 138.257 226.946 136.348C221.756 137.539 216.406 137.804 211.088 138.066L178.933 139.646L180.963 148.594C181.111 149.248 181.278 149.936 181.743 150.418C182.209 150.901 183.078 151.058 183.53 150.563C182.126 147.265 180.692 143.707 181.42 140.197L184.127 149.285C184.294 149.846 184.481 150.439 184.923 150.822ZM224.987 135.977C225.627 135.939 226.342 135.865 226.754 135.374C227.166 134.883 226.85 133.887 226.219 133.996C216.483 135.675 206.594 135.839 196.698 136.003H196.698C191.132 136.095 185.564 136.187 180.019 136.549C179.177 136.604 178.065 136.958 178.138 137.799C180.527 138.607 183.118 138.466 185.635 138.317L224.987 135.977ZM241.613 128.486C242.211 127.926 242.351 127.046 242.457 126.235L242.749 124.009L229.925 134.653C229.733 134.813 229.529 134.99 229.474 135.233C229.416 135.49 229.538 135.75 229.657 135.985L233.623 143.849C234.447 138.022 237.316 132.506 241.613 128.486ZM242.377 131.001C242.413 130.398 242.427 129.728 242.029 129.274C240.043 131.6 238.298 134.131 236.831 136.815C236.65 137.146 236.495 137.609 236.782 137.852C238.182 136.682 239.806 135.781 241.539 135.211C242.056 135.042 242.176 134.377 242.208 133.834L242.377 131.001ZM190.159 190.665C175.701 196.534 164.063 208.975 159.172 223.793C164.916 227.563 179.491 231.736 179.491 231.736C181.625 232.285 183.944 232.083 185.95 231.172C177.015 230.262 168.285 227.384 160.561 222.801C167.303 205.991 182.407 192.781 199.965 188.337C201.443 191.42 202.976 194.578 205.47 196.917C207.964 199.256 211.672 200.625 214.875 199.428C219.469 197.711 223.851 195.428 227.89 192.646C229.495 195.839 229.811 199.652 228.786 203.073L228.481 203.976C228.593 203.679 228.695 203.377 228.786 203.073L230.728 197.331L250.215 209.307C254.091 211.69 258.038 214.131 260.975 217.607C263.991 221.176 265.73 225.571 267.468 229.964L267.468 229.964C269.245 234.455 271.021 238.943 274.159 242.544C268.36 246.779 262.031 250.287 255.366 252.96L249.94 233.853L256.857 275.603C257.167 268.443 256.7 261.249 255.467 254.189C262.933 251.545 269.899 247.494 275.89 242.313C272.062 238.814 270.216 233.925 268.355 228.995L268.355 228.995C267.02 225.458 265.677 221.9 263.588 218.821C257.555 209.925 240.273 200.265 233.363 196.403C231.601 195.418 230.513 194.81 230.459 194.688C226.276 188.876 223.749 181.885 223.249 174.741C222.428 180.57 223.57 186.659 226.447 191.794C222.064 194.924 217.062 197.808 211.682 197.554C206.303 197.301 200.857 192.607 201.719 187.29C206.049 186.316 209.239 181.736 208.65 177.336C207.012 184.112 199.648 186.968 192.898 189.586C191.968 189.947 191.049 190.303 190.159 190.665ZM156.881 288.38C153.394 289.184 149.207 290.854 146.383 294.207C144.409 296.551 143.059 298.371 141.921 299.903C140.04 302.438 138.741 304.188 136.166 306.229C137.634 305.333 139.329 307.284 139.416 309.002C139.446 309.598 139.391 310.206 139.336 310.812C139.233 311.953 139.131 313.085 139.6 314.106C140.826 313.346 142.084 312.556 142.931 311.388C143.777 310.22 144.122 308.566 143.382 307.328C143.129 306.904 143.5 306.39 143.853 306.047C146.036 303.926 148.521 302.117 151.21 300.693C151.591 301.826 151.476 303.117 150.899 304.164L152.212 305.696L149.18 313.288L156.768 305.581C158.278 304.047 160.35 302.38 162.344 303.19C163.357 303.601 163.998 304.541 164.626 305.463C164.765 305.668 164.904 305.871 165.046 306.068C166.577 308.19 168.844 309.769 171.364 310.472C171.402 309.792 171.756 309.137 172.305 308.734C173.054 309.96 174.284 310.882 175.671 311.257L173.795 303.232C173.696 302.808 173.602 302.339 173.808 301.956C174.328 300.993 175.82 301.668 176.517 302.511C177.214 303.355 178.247 304.411 179.193 303.86L178.439 301.264C178.185 300.389 178.608 298.922 179.391 299.39C179.648 299.544 179.742 299.863 179.816 300.153L181.249 305.831C183.069 303.758 182.873 300.485 181.532 298.073C181.329 297.708 181.16 297.321 180.982 296.912C179.981 294.621 178.694 291.672 169.581 288.407C168.242 287.927 166.739 287.881 165.235 287.834C164.483 287.811 163.732 287.787 163.001 287.71C162.439 287.651 160.591 287.679 158.234 288.103C160.914 307.558 159.015 307.571 156.881 288.38ZM158.009 286.448C158.754 286.348 159.514 286.298 160.29 286.301C160.17 286.301 184.692 285.131 184.692 303.403C184.692 305.17 183.644 307.346 181.887 307.283C185.602 316.744 189.934 325.963 194.844 334.863C190.182 336.384 185.193 336.896 180.319 336.355C173.823 342.649 163.333 344.386 155.155 340.522C156.242 342.36 152.917 343.484 150.822 343.066L128.582 338.635C126.833 338.286 124.656 337.442 124.685 335.659C124.707 334.334 125.998 333.444 127.112 332.726C134.09 328.231 139.545 321.415 142.404 313.623C141.417 316.042 136.889 315.015 137.043 312.407C130.874 310.077 124.676 315.398 120.213 320.253L94.8531 347.847L186.836 352.478C192.006 352.738 196.148 348.47 199.527 344.549L223.335 316.925L185.483 313.601C199.267 313.61 213.051 314.424 226.74 316.037C216.388 328.462 205.637 340.555 194.509 352.29C192.83 354.061 190.09 354.164 187.65 354.14C156.564 353.835 125.489 352.47 94.4959 350.047C92.9631 349.367 93.9217 347.047 95.0546 345.81L118.249 320.494C123.48 314.784 130.687 308.524 137.981 311.123C138.844 310.55 138.12 309.796 137.287 308.93C136.729 308.349 136.122 307.717 135.911 307.055C135.635 306.186 136.163 305.285 136.668 304.525C141.736 296.905 148.142 288.531 156.696 286.678C154.58 266.663 154.232 245.793 161.969 227.233C156.785 246.456 155.433 266.705 158.009 286.448ZM230.657 234.836L230.657 234.836C231.167 231.535 231.663 228.327 229.642 225.76C227.866 223.503 224.75 222.8 221.879 222.729C216.711 222.601 211.207 223.894 207.558 227.556C207.123 227.992 206.953 229.162 207.43 229.057C208.525 228.815 209.429 228.313 210.319 227.82C211.108 227.382 211.886 226.95 212.774 226.713C214.662 226.21 216.827 226.351 218.367 227.556C214.512 226.854 207.082 229.058 207.558 230.938C207.906 232.316 210.072 231.488 211.984 230.757C212.68 230.491 213.343 230.237 213.872 230.108C215.588 229.689 218.159 229.874 218.185 231.64C218.201 232.707 217.136 233.427 216.199 233.938C215.484 234.329 214.492 234.711 213.5 235.092C211.516 235.855 209.533 236.618 209.761 237.456C210.081 238.628 211.608 238.14 213.319 237.595C214.654 237.169 216.1 236.707 217.171 236.971C219.545 237.556 220.573 240.292 221.226 242.649L221.566 243.875L221.566 243.876C224.985 256.217 228.416 268.6 233.527 280.338C237.066 288.463 241.598 296.48 248.655 301.84C249.483 302.469 250.388 303.075 251.42 303.193C252.423 303.307 253.415 302.944 254.34 302.538C261.634 299.34 267.371 293.169 271.062 286.111C272.538 283.288 273.725 280.278 274.169 277.124C274.566 274.296 274.359 271.421 274.08 268.579C273.492 262.595 272.59 256.642 271.379 250.753C271.086 249.332 270.861 247.623 271.927 246.639C273.492 253.735 274.628 260.925 275.326 268.158C275.634 271.339 275.855 274.561 275.357 277.718C274.835 281.033 273.529 284.185 271.908 287.124C268.314 293.64 263.1 300.814 256.868 304.881C255.86 305.539 254.794 306.169 253.609 306.379C250.986 306.844 248.481 305.184 246.487 303.418C236.414 294.495 231.363 279.758 227.17 266.971C225.774 262.713 224.433 258.438 223.147 254.146C223.292 255.824 223.26 257.872 221.812 258.732C220.889 259.281 219.724 259.107 218.669 258.904C210.254 257.287 201.979 254.943 193.966 251.907C192.557 251.373 191.015 250.684 190.448 249.288C189.557 247.097 191.582 244.892 193.407 243.388L205.417 233.489C205.713 233.245 206.051 232.987 206.433 233.014C206.816 233.042 207.14 233.547 206.87 233.818L193.982 244.377C192.521 245.573 190.911 247.481 191.88 249.102C192.307 249.817 193.123 250.187 193.893 250.504C201.559 253.657 209.633 255.705 217.743 257.422C218.757 257.637 219.83 257.844 220.811 257.511C221.793 257.179 222.6 256.098 222.253 255.121L218.064 243.328C217.51 241.769 217.195 239.573 218.693 238.87C216.231 238.047 213.461 238.184 211.093 239.247C209.661 239.89 208.509 237.487 209.411 236.202C210.168 235.123 211.5 234.718 212.791 234.325C213.036 234.25 213.28 234.176 213.519 234.098C215.01 233.608 216.634 232.504 216.525 230.938C213.919 231.336 211.348 231.966 208.853 232.818C207.67 233.222 206.457 232.074 206.158 230.86C205.356 227.604 208.64 224.82 211.733 223.527C214.952 222.182 218.419 221.434 221.906 221.334C222.615 221.314 223.025 220.544 223.287 219.884L226.69 211.289L219.184 209.174L213.859 221.946C212.735 221.358 213.309 219.664 213.954 218.571C216.038 215.037 217.366 211.06 217.822 206.984C220.939 206.569 224.208 207.444 226.701 209.36C227.107 209.672 227.509 210.034 227.67 210.519C227.878 211.146 227.64 211.823 227.404 212.439L223.914 221.555C227.035 221.558 230.067 223.532 231.332 226.385C232.431 228.866 232.212 231.615 231.991 234.368C231.901 235.495 231.811 236.622 231.811 237.731C231.811 244.945 235.673 251.522 239.415 257.689L243.367 264.203C244.644 266.309 245.929 268.424 247.525 270.3C250.562 273.867 254.708 276.475 259.237 277.668C255.261 277.939 251.395 275.968 248.509 273.219C245.623 270.471 243.559 266.991 241.533 263.559L235.246 252.912C232.837 248.832 230.227 244.221 230.188 239.483C230.176 237.952 230.418 236.384 230.657 234.836ZM219.296 240.786C219.203 240.522 219.083 240.229 218.823 240.124C218.388 240.807 218.575 241.698 218.796 242.476C219.663 245.523 220.838 248.481 222.298 251.292C221.726 247.689 220.508 244.226 219.296 240.786ZM218.985 207.945C220.887 208.912 223.007 209.446 225.14 209.496C223.307 208.375 221.13 207.826 218.985 207.945ZM222.645 252.992C222.542 253.283 222.772 253.639 223.079 253.665C222.989 252.887 222.746 252.127 222.366 251.442C222.214 251.941 222.303 252.507 222.6 252.936L222.645 252.992ZM251.019 316.289C250.607 316.138 250.613 315.561 250.696 315.13L251.961 308.523C252.04 308.108 252.221 307.598 252.642 307.567C253.173 307.529 253.359 308.256 253.337 308.787C253.241 311.064 252.791 313.325 252.007 315.464C251.842 315.914 251.469 316.455 251.019 316.289ZM136.323 337.642C132.853 338.104 128.947 338.454 126.214 336.266C126.044 336.13 125.876 335.978 125.792 335.777C125.441 334.928 126.684 334.389 127.577 334.177C130.679 333.44 132.983 330.888 134.917 328.354C139.288 322.625 142.856 316.285 145.483 309.575C145.536 309.44 145.588 309.305 145.641 309.17C146.597 306.716 147.606 304.127 149.756 302.639C150.614 306.401 149.721 310.525 147.385 313.596C147.753 314.296 148.719 314.49 149.467 314.234C150.216 313.978 150.795 313.39 151.345 312.822L157.416 306.544C158.841 305.07 161.099 303.51 162.711 304.777C163.237 305.191 163.521 305.81 163.804 306.429C163.912 306.665 164.02 306.901 164.141 307.125C165.537 309.705 168.441 310.555 171.381 311.416C172.758 311.819 174.142 312.225 175.383 312.811C175.812 313.013 176.426 313.195 176.675 312.791C176.759 312.654 176.767 312.486 176.771 312.326C176.853 309.157 176.137 305.971 174.706 303.142C177.299 304.406 180.127 305.925 181.079 308.648C184.18 317.516 187.964 326.145 192.387 334.434C187.07 335.406 181.551 335.262 176.291 334.015C176.184 335.32 177.27 336.607 178.575 336.72C175.977 337.506 173.392 338.339 170.823 339.219L172.776 340.83C166.099 341.266 159.361 340.734 152.836 339.257C152.956 340.321 153.173 341.374 153.484 342.399C148.654 341.559 143.892 340.331 139.258 338.731L140.03 337.149L136.323 337.642Z" fill="#00160A"/>
<path fill-rule="evenodd" clip-rule="evenodd" d="M180.304 203.25C179.8 203.463 179.153 203.477 178.769 203.088C178.293 202.608 178.453 201.798 178.749 201.19C179.011 200.652 179.377 200.132 179.913 199.865C180.45 199.597 181.182 199.657 181.552 200.128C181.78 200.417 181.839 200.808 181.808 201.174C181.733 202.069 181.131 202.9 180.304 203.25Z" fill="#FFA503"/>
<path fill-rule="evenodd" clip-rule="evenodd" d="M193.754 131.592C192.979 131.931 192.286 130.973 191.487 130.694C190.654 130.402 189.769 130.888 189.013 131.345C187.423 132.308 185.803 133.221 184.157 134.084C183.819 134.261 183.452 134.441 183.074 134.392C182.696 134.343 182.343 133.951 182.481 133.596C182.559 133.397 182.758 133.275 182.943 133.169C184.329 132.374 185.715 131.578 187.1 130.783C188.89 129.756 190.952 128.694 192.921 129.308C193.424 129.466 193.921 129.757 194.151 130.232C194.381 130.707 194.236 131.38 193.754 131.592V131.592Z" fill="#00160A"/>
<path fill-rule="evenodd" clip-rule="evenodd" d="M197.175 161.011C196.704 162.154 195.987 163.481 194.752 163.54C193.647 163.592 192.783 162.523 192.523 161.448C192.161 159.951 192.732 158.165 194.106 157.47C195.48 156.775 197.5 157.666 197.611 159.203C197.657 159.827 197.414 160.432 197.175 161.011H197.175Z" fill="#FE0000"/>
<path fill-rule="evenodd" clip-rule="evenodd" d="M221.358 160.044L221.37 160.286C221.442 161.468 221.703 162.802 222.77 163.249C223.79 163.677 224.968 162.967 225.58 162.046C226.432 160.763 226.507 158.89 225.453 157.766C224.4 156.643 222.197 156.79 221.567 158.196C221.311 158.767 221.332 159.418 221.358 160.044Z" fill="#FE0000"/>
<path fill-rule="evenodd" clip-rule="evenodd" d="M223.489 138.27C223.811 138.185 224.213 138.181 224.413 138.448C224.546 138.625 224.545 138.867 224.533 139.089C224.481 140.06 224.063 141.282 223.09 141.304C222.342 141.321 221.781 140.461 221.934 139.728C222.086 138.996 222.765 138.461 223.489 138.27V138.27Z" fill="#FFA503"/>
<path fill-rule="evenodd" clip-rule="evenodd" d="M221.846 146.254C221.371 145.411 222.334 144.499 223.173 144.015C223.868 143.612 224.964 143.325 225.3 144.055C225.531 144.558 225.148 145.115 224.787 145.534C224.398 145.985 223.985 146.452 223.431 146.672C222.876 146.891 222.139 146.773 221.846 146.254L221.846 146.254Z" fill="#FFA503"/>
<path fill-rule="evenodd" clip-rule="evenodd" d="M215.199 142.301C215.073 142.629 214.934 142.97 214.668 143.201C214.299 143.52 213.753 143.562 213.282 143.433C212.33 143.172 211.605 142.21 211.665 141.224C211.725 140.239 212.602 139.356 213.59 139.337C214.577 139.318 215.503 140.21 215.478 141.197C215.468 141.578 215.335 141.944 215.199 142.301Z" fill="#00160A"/>
<path fill-rule="evenodd" clip-rule="evenodd" d="M191.376 143.779C190.282 143.665 189.466 142.407 189.81 141.362C190.153 140.317 191.556 139.788 192.504 140.346C193.452 140.904 193.671 142.387 192.924 143.194C192.536 143.614 191.945 143.837 191.376 143.779H191.376Z" fill="#00160A"/>
<path fill-rule="evenodd" clip-rule="evenodd" d="M175.869 255.147C175.178 256.172 174.487 257.198 173.795 258.223C173.375 258.216 173.349 257.595 173.469 257.192C174.115 255.018 174.76 252.844 175.405 250.671C174.951 250.467 174.531 251.006 174.32 251.457C172.19 256.013 170.052 260.589 168.605 265.406C167.158 270.222 166.417 275.325 167.141 280.302C167.613 279.199 168.085 278.097 168.557 276.994C169.307 275.243 170.059 273.486 171.03 271.847C172.087 270.062 173.393 268.431 174.405 266.62C175.417 264.809 176.134 262.737 175.862 260.68C175.454 261.248 175.046 261.816 174.637 262.384C173.483 260.137 176.594 257.567 175.869 255.147Z" fill="#FFA503"/>
<path fill-rule="evenodd" clip-rule="evenodd" d="M146.055 252.718C147.103 252.733 146.198 250.544 147.141 250.087C147.739 249.797 148.289 250.557 148.513 251.182C150.024 255.398 150.91 259.837 151.132 264.31C151.383 269.374 154.856 274.292 153.445 279.162C153.345 279.506 153.211 279.859 152.944 280.098C151.984 280.957 150.589 279.706 149.978 278.572C147.884 274.68 146.458 270.431 145.78 266.064C145.63 265.102 145.509 264.109 145.041 263.256C144.647 262.538 144.032 261.966 143.601 261.271C142.752 259.9 142.695 258.2 142.663 256.588C142.604 253.642 142.546 250.696 142.487 247.75C142.466 246.68 142.722 245.267 143.786 245.144C144.929 247.531 145.697 250.096 146.055 252.718Z" fill="#FFA503"/>
<path fill-rule="evenodd" clip-rule="evenodd" d="M126.214 336.267C128.947 338.455 132.853 338.105 136.323 337.643C137.559 337.479 138.795 337.314 140.03 337.15C139.773 337.677 139.516 338.204 139.258 338.732C143.892 340.332 148.654 341.56 153.484 342.4C153.173 341.375 152.956 340.321 152.836 339.257C159.361 340.735 166.099 341.266 172.776 340.83C172.125 340.293 171.474 339.756 170.823 339.219C173.392 338.34 175.977 337.506 178.575 336.72C177.27 336.607 176.184 335.321 176.291 334.015C181.551 335.263 187.07 335.407 192.387 334.434C187.964 326.146 184.179 317.517 181.079 308.648C180.127 305.925 177.299 304.407 174.706 303.142C176.137 305.971 176.853 309.158 176.771 312.327C176.767 312.487 176.759 312.655 176.675 312.791C176.426 313.195 175.812 313.014 175.383 312.811C171.49 310.973 166.19 310.913 164.141 307.126C163.701 306.312 163.438 305.349 162.711 304.778C161.099 303.511 158.841 305.071 157.415 306.545C155.392 308.637 153.368 310.73 151.345 312.822C150.795 313.391 150.216 313.978 149.467 314.234C148.719 314.491 147.753 314.297 147.385 313.596C149.721 310.526 150.614 306.402 149.756 302.64C147.487 304.21 146.489 307.006 145.483 309.575C142.856 316.285 139.288 322.626 134.917 328.354C132.983 330.889 130.679 333.44 127.577 334.177C126.684 334.389 125.441 334.929 125.792 335.777C125.876 335.979 126.044 336.131 126.214 336.267Z" fill="white"/>
<path fill-rule="evenodd" clip-rule="evenodd" d="M179.661 286.946C177.471 266.691 177.01 245.517 184.849 226.713C179.555 246.345 178.257 267.046 181.059 287.186C183.863 307.345 181.848 307.181 179.661 286.946Z" fill="#00160A"/>
<path fill-rule="evenodd" clip-rule="evenodd" d="M155.636 233.193C155.761 231.84 155.939 230.492 156.17 229.153C156.292 228.444 157.338 228.266 157.91 228.702C158.483 229.138 158.684 229.896 158.84 230.599C161.241 241.411 161.362 252.723 159.193 263.584C158.988 264.61 158.455 265.884 157.41 265.824C156.497 265.771 156.041 264.719 155.792 263.84C153.807 256.838 152.037 249.775 150.483 242.664C150.082 240.828 149.693 238.955 149.856 237.083C150.018 235.21 150.813 233.305 152.353 232.226C152.947 231.81 153.681 231.524 154.393 231.663C155.104 231.802 155.735 232.475 155.636 233.193" fill="#FFA503"/>
<path fill-rule="evenodd" clip-rule="evenodd" d="M176.398 302.865C177.169 304.196 179.743 304.664 179.388 303.836C179.033 303.008 178.922 302.312 178.567 301.484C178.208 300.646 178.45 299.139 179.284 299.508C179.558 299.629 179.69 299.935 179.798 300.214C180.503 302.034 180.544 304.011 181.249 305.831C183.873 303.553 182.237 298.022 180.613 295.792C178.989 293.562 178.425 290.261 167.298 287.751C165.217 287.281 162.812 287.295 160.606 287.332C159.155 287.356 149.494 288.995 144.892 295.058C140.289 301.122 139.868 302.475 136.166 306.229C137.548 305.831 139.052 307.055 139.348 308.749C139.644 310.443 138.445 312.768 139.348 314.232C144.429 313.044 143.603 308.779 143.912 308.395C145.82 306.024 147.405 302.284 150.561 302.184C151.078 303.262 150.868 304.489 150.676 305.668C151.173 306.121 149.671 310.955 148.976 313.589C151.173 310.731 154.476 309.216 156.673 306.358C157.985 304.652 159.838 302.745 161.917 303.305C163.207 303.653 163.968 305.378 164.876 306.358C166.655 308.277 168.777 310.082 171.364 310.472C171.319 309.793 171.97 309.533 172.465 309.066C173.357 310.191 174.479 311.251 175.901 311.454C174.954 308.875 175.047 306.131 174.1 303.553C173.95 303.144 173.8 302.69 173.958 302.284C174.356 301.265 175.627 301.534 176.398 302.865Z" fill="#FFA503"/>
<path fill-rule="evenodd" clip-rule="evenodd" d="M279.28 148.672C280.585 148.641 281.579 148.897 283.461 149.649C283.461 149.649 286.889 151.27 286.765 151.683C286.642 152.096 284.694 151.837 283.993 151.552L283.11 151.19C281.469 150.525 280.592 150.262 279.654 150.233L279.534 150.23L279.528 150.283L279.522 150.345C279.502 150.663 279.571 151.084 279.674 151.325C279.865 151.775 280.092 152.217 280.35 152.649L280.518 152.922L280.714 152.945C283.229 153.262 285.661 154.237 287.243 155.638L287.385 155.766C289.15 157.413 289.918 158.597 289.518 159.519C289.077 160.539 287.832 160.458 286.236 159.795C283.926 158.836 281.497 156.934 279.78 154.604L279.642 154.413L279.598 154.411C279.301 154.395 279.005 154.39 278.711 154.397L278.491 154.404C275.333 154.534 273.107 155.908 272.489 158.372C272.282 159.2 272.408 160.058 272.798 160.895L272.875 161.053L272.903 161.054C275.803 161.171 278.54 162.021 280.056 163.398L280.173 163.508C280.99 164.299 281.506 164.964 281.728 165.532C282.029 166.3 281.807 167.027 281.09 167.345C280.236 167.723 278.725 167.402 277.042 166.621C274.914 165.632 273.121 164.252 272.015 162.674L271.966 162.603L271.81 162.606C271.667 162.609 271.524 162.615 271.381 162.623L271.167 162.636C267.735 162.871 265.223 164.206 264.58 166.311C264.34 167.097 264.534 168.175 265.045 169.299L265.073 169.358L265.217 169.355C266.885 169.334 268.572 169.882 270.069 171.078L270.315 171.277C270.5 171.423 270.839 171.682 270.806 171.657L271.021 171.829C271.984 172.62 272.376 173.268 271.925 174.165C270.781 176.444 268.18 175.665 265.873 173.235C265.263 172.593 264.724 171.894 264.278 171.174L264.188 171.024L264.064 171.049C262.871 171.305 261.724 171.925 260.74 172.867L260.618 172.986C258.609 174.991 258.109 177.574 259.443 179.604L259.535 179.74L259.617 179.777C260.08 179.991 260.587 180.259 261.189 180.599L261.807 180.952L262.537 181.373C262.614 181.417 262.679 181.459 262.739 181.507C262.927 181.658 263.047 181.808 263.062 182.118C263.088 182.667 262.73 182.897 262.358 182.947C262.262 182.959 262.178 182.956 262.083 182.945C261.883 182.921 261.584 182.844 261.241 182.734C260.418 182.468 259.665 182.129 259.283 181.785C259.019 181.547 258.78 181.299 258.567 181.042L258.542 181.012L258.536 181.01C258.145 180.852 257.783 180.739 257.401 180.652L257.286 180.627C256.038 180.364 254.706 180.443 252.722 180.803C249.593 181.371 248.104 184.346 248.645 186.812L248.658 186.869L248.706 186.886C249.232 187.082 249.77 187.386 250.504 187.86L251.149 188.281C251.861 188.738 252.342 189.191 252.618 189.803C252.959 190.561 252.365 191.828 251.351 191.541C249.392 190.988 248.12 189.769 247.476 188.301L247.42 188.169L247.392 188.165C244.262 187.721 240.082 189.31 237.523 191.799L237.375 191.946C236.352 192.981 235.741 193.999 235.575 194.963L235.568 195.007L235.733 194.995C236.448 194.948 237.091 194.963 237.615 195.046L237.768 195.073C240.153 195.535 241.624 196.054 242.334 196.688C243.248 197.505 243.017 198.517 242.079 199.207C240.957 200.033 238.297 200.748 237.594 200.385C235.734 199.423 234.614 198.202 234.178 196.862L234.147 196.763L234.116 196.769C233.117 196.951 232.051 197.231 231.055 197.595L230.843 197.674C228.036 198.744 226.525 200.302 226.125 201.953C225.643 203.944 230.193 207.982 229.841 208.231C229.49 208.48 228.01 207.155 227.284 206.467L227.159 206.349C225.107 204.412 224.417 203.436 224.572 201.805C224.803 199.374 226.984 197.476 230.287 196.216C231.453 195.772 232.716 195.433 233.909 195.222L233.977 195.209L233.983 195.136C234.102 193.76 234.842 192.327 236.152 190.966L236.265 190.849C238.939 188.145 243.249 186.355 246.827 186.545L247.011 186.557L247 186.446C246.71 183.406 248.598 180.071 252.25 179.306L252.444 179.268L252.972 179.176C254.689 178.891 255.984 178.823 257.234 179.03L257.449 179.069L257.418 178.978C256.671 176.659 257.42 174.051 259.391 172.009L259.516 171.882C260.649 170.751 261.988 169.974 263.399 169.604L263.467 169.586L263.428 169.49C262.943 168.251 262.778 167.029 263.049 165.996L263.088 165.856C263.945 163.049 266.945 161.414 270.847 161.096L271.06 161.08L271.165 161.073L271.134 160.988C270.813 160.07 270.729 159.112 270.94 158.146L270.976 157.993C271.785 154.764 274.642 153.001 278.426 152.845L278.667 152.837L278.639 152.784C278.53 152.574 278.427 152.363 278.332 152.149L278.238 151.935C278.039 151.467 277.929 150.803 277.966 150.244C278.022 149.374 278.42 148.693 279.28 148.672ZM237.472 196.605C237.068 196.526 236.535 196.508 235.923 196.544L235.734 196.556L235.756 196.612C236.099 197.424 236.834 198.172 237.987 198.825L238.195 198.938L238.281 198.932L238.399 198.918C238.648 198.885 238.968 198.818 239.301 198.728C240.071 198.521 240.772 198.232 241.155 197.951L241.203 197.914L241.286 197.844L241.248 197.812C240.789 197.445 239.609 197.031 237.681 196.646L237.472 196.605ZM266.014 170.961L266.035 170.991C266.326 171.395 266.651 171.789 267.004 172.161C268.643 173.887 270.025 174.328 270.5 173.522L270.509 173.506C270.505 173.506 270.501 173.504 270.495 173.499L270.467 173.465C270.373 173.332 270.208 173.175 269.949 172.968L269.8 172.851L269.389 172.535L269.219 172.397C268.286 171.619 267.262 171.159 266.221 170.991L266.014 170.961ZM274.09 162.715L274.139 162.767C275.057 163.704 276.286 164.549 277.7 165.206C278.717 165.679 279.651 165.932 280.151 165.953L280.206 165.954L280.178 165.903C280.009 165.614 279.687 165.222 279.211 164.749L279.088 164.629C278.139 163.71 276.369 163.034 274.345 162.749L274.09 162.715ZM281.905 154.745L282.055 154.909C283.47 156.44 285.198 157.675 286.834 158.354C287.212 158.511 287.549 158.618 287.82 158.672L287.903 158.686L287.85 158.602C287.568 158.167 287.057 157.594 286.321 156.907C285.291 155.947 283.733 155.194 282.019 154.772L281.905 154.745Z" fill="#FFA503"/>
<path fill-rule="evenodd" clip-rule="evenodd" d="M230.229 89.4273C229.395 89.6103 229.039 90.5751 228.45 91.1932C227.861 91.8113 226.405 91.661 226.603 90.8305C227.712 88.6234 228.837 86.3652 229.17 83.9179C229.504 81.4707 228.908 78.7561 227.045 77.1345C225.757 76.0133 224.035 75.5394 222.353 75.2424C215.816 74.0878 209.123 75.1185 202.508 75.6807C195.894 76.2429 188.938 76.2699 182.989 73.3241C178.946 71.3219 176.539 66.465 177.394 62.0352C170.281 70.6951 167.082 82.2712 167.912 93.4469C168.15 96.6604 168.711 99.8729 169.889 102.872C172.801 110.29 179.437 115.923 186.969 118.525C194.5 121.127 202.823 120.89 210.521 118.834C218.22 116.777 225.355 112.98 232.002 108.585C232.435 108.298 232.997 108.924 232.862 109.425C232.727 109.927 232.23 110.228 231.776 110.478C227.932 112.59 224.089 114.702 220.245 116.814C222.55 118.024 223.795 120.557 224.774 122.969C226.021 126.041 227.083 129.188 227.953 132.388C232.073 129.079 236.192 125.77 240.312 122.462C240.741 122.117 241.612 121.947 241.63 122.497C237.7 125.765 233.771 129.033 229.841 132.3C229.246 132.795 228.589 133.453 228.743 134.211C232.48 131.133 236.218 128.055 239.955 124.978C241.152 123.991 242.432 122.868 242.676 121.336C243.771 114.47 244.83 107.22 242.316 100.738C240.401 95.8034 236.415 91.7107 231.533 89.6667C231.118 89.4931 230.667 89.331 230.229 89.4273Z" fill="white"/>
<path fill-rule="evenodd" clip-rule="evenodd" d="M203.481 149.291C203.84 149.31 204.115 149.616 204.096 149.975L204.072 150.389C203.966 152.137 203.803 153.256 203.551 153.829C203.299 154.401 203.866 154.393 204.058 154.347C204.25 154.301 206.389 152.034 206.639 152.292C206.889 152.549 206.883 152.961 206.625 153.211L206.354 153.472C205.254 154.52 204.542 155.069 204.058 155.185C203.632 155.287 202.84 155.534 202.739 154.977C202.546 153.911 203.275 152.756 203.457 151.319C203.575 150.388 203.285 149.297 203.415 149.291L203.481 149.291Z" fill="#00160A"/>
</svg>
