<svg width="25" height="24" viewBox="0 0 25 24" fill="none" xmlns="http://www.w3.org/2000/svg">
<path d="M3.16667 3.33337C2.45942 3.33337 1.78115 3.61433 1.28105 4.11442C0.780952 4.61452 0.5 5.2928 0.5 6.00004L0.5 18C0.5 18.7073 0.780952 19.3856 1.28105 19.8857C1.78115 20.3858 2.45942 20.6667 3.16667 20.6667H8.5V3.33337H3.16667Z" fill="#009A49"/>
<path d="M8.5 3.33337H16.5V20.6667H8.5V3.33337Z" fill="#EEEEEE"/>
<path d="M21.8333 3.33337H16.5V20.6667H21.8333C22.5406 20.6667 23.2189 20.3858 23.719 19.8857C24.219 19.3856 24.5 18.7073 24.5 18V6.00004C24.5 5.2928 24.219 4.61452 23.719 4.11442C23.2189 3.61433 22.5406 3.33337 21.8333 3.33337Z" fill="#009A49"/>
</svg>
