<svg width="160" height="160" viewBox="0 0 160 160" fill="none" xmlns="http://www.w3.org/2000/svg">
<path d="M144.17 118.401C137.476 129.583 127.983 138.827 116.628 145.222C105.274 151.618 92.4482 154.944 79.4163 154.874C66.3844 154.803 53.5957 151.338 42.3107 144.82C31.0257 138.302 21.6338 128.956 15.0606 117.703C8.4875 106.45 4.95998 93.6789 4.82573 80.6475C4.69148 67.6161 7.95513 54.7746 14.295 43.3886C20.635 32.0025 29.8323 22.465 40.9806 15.7159C52.129 8.96685 64.8435 5.23915 77.8712 4.90023L79.1391 53.6337C74.5794 53.7524 70.1293 55.0571 66.2274 57.4192C62.3254 59.7814 59.1064 63.1195 56.8874 67.1047C54.6684 71.0898 53.5262 75.5843 53.5731 80.1453C53.6201 84.7063 54.8548 89.1763 57.1554 93.1149C59.456 97.0534 62.7431 100.325 66.6929 102.606C70.6426 104.887 75.1187 106.1 79.6798 106.124C84.241 106.149 88.7299 104.985 92.7041 102.746C96.6783 100.508 100.001 97.2726 102.344 93.3592L144.17 118.401Z" fill="#FFEEE3"/>
<path d="M145.973 119.229C139.145 130.634 129.463 140.063 117.881 146.587C106.299 153.11 93.2172 156.503 79.9246 156.431C66.632 156.359 53.5876 152.825 42.0769 146.177C30.5662 139.528 20.9865 129.996 14.2819 118.517C7.57725 107.039 3.97918 94.0125 3.84224 80.7204C3.70531 67.4284 7.03423 54.3301 13.5009 42.7163C19.9676 31.1026 29.3489 21.3743 40.7203 14.4902C52.0916 7.60618 65.0604 3.80394 78.3487 3.45823L78.4481 7.28195C65.8243 7.61036 53.5039 11.2225 42.7012 17.7624C31.8984 24.3022 22.9862 33.5441 16.8428 44.5771C10.6994 55.6102 7.53695 68.0536 7.66704 80.681C7.79713 93.3085 11.2153 105.684 17.5847 116.588C23.954 127.492 33.0548 136.549 43.99 142.865C54.9251 149.18 67.3174 152.538 79.9453 152.606C92.5732 152.675 105.001 149.451 116.004 143.254C127.007 137.057 136.205 128.099 142.692 117.265L145.973 119.229Z" fill="#FECDAA"/>
<rect x="50" y="50" width="60" height="60" rx="30" fill="white"/>
<path d="M69.216 85.192C68.4053 85.192 67.7227 85.0427 67.168 84.744C66.6133 84.4347 66.1653 84.024 65.824 83.512C65.4933 83 65.248 82.4293 65.088 81.8C64.9387 81.16 64.864 80.5093 64.864 79.848C64.864 78.6107 65.0347 77.528 65.376 76.6C65.7173 75.6613 66.208 74.9307 66.848 74.408C67.4987 73.8747 68.2827 73.608 69.2 73.608C69.904 73.608 70.5067 73.7467 71.008 74.024C71.5093 74.3013 71.904 74.6747 72.192 75.144C72.4907 75.6027 72.6773 76.1147 72.752 76.68H71.504C71.3867 76.072 71.1253 75.6027 70.72 75.272C70.3147 74.9413 69.8027 74.776 69.184 74.776C68.3413 74.776 67.632 75.176 67.056 75.976C66.4907 76.7653 66.1867 78.0027 66.144 79.688C66.4 79.1867 66.8053 78.7547 67.36 78.392C67.9253 78.0187 68.6027 77.832 69.392 77.832C70.032 77.832 70.6293 77.9813 71.184 78.28C71.7493 78.5787 72.208 79 72.56 79.544C72.912 80.0773 73.088 80.7067 73.088 81.432C73.088 82.0613 72.9333 82.664 72.624 83.24C72.3147 83.816 71.8667 84.2853 71.28 84.648C70.704 85.0107 70.016 85.192 69.216 85.192ZM69.12 84.008C69.6213 84.008 70.0693 83.9013 70.464 83.688C70.8587 83.4747 71.168 83.1813 71.392 82.808C71.616 82.424 71.728 81.9867 71.728 81.496C71.728 80.7387 71.4773 80.136 70.976 79.688C70.4853 79.2293 69.8667 79 69.12 79C68.6187 79 68.1707 79.1173 67.776 79.352C67.3813 79.576 67.0667 79.88 66.832 80.264C66.608 80.648 66.496 81.064 66.496 81.512C66.496 81.992 66.608 82.424 66.832 82.808C67.0667 83.1813 67.3813 83.4747 67.776 83.688C68.1707 83.9013 68.6187 84.008 69.12 84.008ZM79.1181 85.192C78.3075 85.192 77.6248 85.0427 77.0701 84.744C76.5155 84.4347 76.0675 84.024 75.7261 83.512C75.3955 83 75.1501 82.4293 74.9901 81.8C74.8408 81.16 74.7661 80.5093 74.7661 79.848C74.7661 78.6107 74.9368 77.528 75.2781 76.6C75.6195 75.6613 76.1101 74.9307 76.7501 74.408C77.4008 73.8747 78.1848 73.608 79.1021 73.608C79.8061 73.608 80.4088 73.7467 80.9101 74.024C81.4115 74.3013 81.8061 74.6747 82.0941 75.144C82.3928 75.6027 82.5795 76.1147 82.6541 76.68H81.4061C81.2888 76.072 81.0275 75.6027 80.6221 75.272C80.2168 74.9413 79.7048 74.776 79.0861 74.776C78.2435 74.776 77.5341 75.176 76.9581 75.976C76.3928 76.7653 76.0888 78.0027 76.0461 79.688C76.3021 79.1867 76.7075 78.7547 77.2621 78.392C77.8275 78.0187 78.5048 77.832 79.2941 77.832C79.9341 77.832 80.5315 77.9813 81.0861 78.28C81.6515 78.5787 82.1101 79 82.4621 79.544C82.8141 80.0773 82.9901 80.7067 82.9901 81.432C82.9901 82.0613 82.8355 82.664 82.5261 83.24C82.2168 83.816 81.7688 84.2853 81.1821 84.648C80.6061 85.0107 79.9181 85.192 79.1181 85.192ZM79.0221 84.008C79.5235 84.008 79.9715 83.9013 80.3661 83.688C80.7608 83.4747 81.0701 83.1813 81.2941 82.808C81.5181 82.424 81.6301 81.9867 81.6301 81.496C81.6301 80.7387 81.3795 80.136 80.8781 79.688C80.3875 79.2293 79.7688 79 79.0221 79C78.5208 79 78.0728 79.1173 77.6781 79.352C77.2835 79.576 76.9688 79.88 76.7341 80.264C76.5101 80.648 76.3981 81.064 76.3981 81.512C76.3981 81.992 76.5101 82.424 76.7341 82.808C76.9688 83.1813 77.2835 83.4747 77.6781 83.688C78.0728 83.9013 78.5208 84.008 79.0221 84.008ZM86.7386 79C86.2586 79 85.8213 78.8933 85.4266 78.68C85.0426 78.456 84.7386 78.1467 84.5146 77.752C84.2906 77.3467 84.1786 76.8667 84.1786 76.312C84.1786 75.7573 84.2906 75.2827 84.5146 74.888C84.7493 74.4827 85.0586 74.1733 85.4426 73.96C85.8373 73.736 86.2746 73.624 86.7546 73.624C87.2346 73.624 87.6666 73.736 88.0506 73.96C88.4346 74.1733 88.7386 74.4827 88.9626 74.888C89.1866 75.2827 89.2986 75.7573 89.2986 76.312C89.2986 76.8667 89.1813 77.3467 88.9466 77.752C88.7226 78.1467 88.4186 78.456 88.0346 78.68C87.6506 78.8933 87.2186 79 86.7386 79ZM85.7466 85L92.2586 73.8H93.6026L87.0906 85H85.7466ZM86.7386 77.96C87.112 77.96 87.4373 77.8213 87.7146 77.544C88.0026 77.2667 88.1466 76.856 88.1466 76.312C88.1466 75.7573 88.008 75.3413 87.7306 75.064C87.4533 74.776 87.128 74.632 86.7546 74.632C86.3813 74.632 86.0453 74.776 85.7466 75.064C85.4586 75.3413 85.3146 75.7573 85.3146 76.312C85.3146 76.856 85.4586 77.2667 85.7466 77.544C86.0346 77.8213 86.3653 77.96 86.7386 77.96ZM92.7226 85.192C92.2426 85.192 91.8053 85.0853 91.4106 84.872C91.0266 84.648 90.7226 84.3387 90.4986 83.944C90.2746 83.5387 90.1626 83.0587 90.1626 82.504C90.1626 81.9493 90.2746 81.4747 90.4986 81.08C90.7333 80.6747 91.0426 80.3653 91.4266 80.152C91.8106 79.928 92.2426 79.816 92.7226 79.816C93.2026 79.816 93.6346 79.928 94.0186 80.152C94.4026 80.3653 94.7066 80.6747 94.9306 81.08C95.1546 81.4747 95.2666 81.9493 95.2666 82.504C95.2666 83.0587 95.1546 83.5387 94.9306 83.944C94.7066 84.3387 94.4026 84.648 94.0186 84.872C93.6346 85.0853 93.2026 85.192 92.7226 85.192ZM92.7066 84.152C93.0906 84.152 93.4213 84.0133 93.6986 83.736C93.9866 83.4587 94.1306 83.048 94.1306 82.504C94.1306 81.9493 93.992 81.5333 93.7146 81.256C93.4373 80.9787 93.1066 80.84 92.7226 80.84C92.3493 80.84 92.0186 80.9787 91.7306 81.256C91.4426 81.5333 91.2986 81.9493 91.2986 82.504C91.2986 83.048 91.4373 83.4587 91.7146 83.736C92.0026 84.0133 92.3333 84.152 92.7066 84.152Z" fill="#292627"/>
</svg>
