<svg width="22" height="21" viewBox="0 0 22 21" fill="none" xmlns="http://www.w3.org/2000/svg">
<path d="M15.2427 4.75732C17.5858 7.10047 17.5858 10.8995 15.2427 13.2426M6.75734 13.2426C4.41419 10.8995 4.41419 7.10047 6.75734 4.75732M3.92869 16.0711C0.0234451 12.1658 0.0234451 5.8342 3.92869 1.92896M18.0713 1.92896C21.9765 5.8342 21.9765 12.1658 18.0713 16.0711M11 11C12.1045 11 13 10.1046 13 9C13 7.89543 12.1045 7 11 7C9.89541 7 8.99998 7.89543 8.99998 9C8.99998 10.1046 9.89541 11 11 11ZM11 11V20" stroke="white" stroke-width="2" stroke-linecap="round" stroke-linejoin="round"/>
</svg>
